<svg height="1500" viewBox="100 100 1900 1500" width="1900" xmlns="http://www.w3.org/2000/svg"><g fill-rule="evenodd"><path d="m450 124.242c0-13.388 8.61-24.242 19.231-24.242h461.538c10.621 0 19.231 10.854 19.231 24.242v101.516c0 13.388-8.61 24.242-19.231 24.242h-461.538c-10.621 0-19.231-10.854-19.231-24.242z" fill="#128500"/><path d="m100 574.242c0-13.388 8.61-24.242 19.231-24.242h461.538c10.621 0 19.231 10.854 19.231 24.242v101.516c0 13.388-8.61 24.242-19.231 24.242h-461.538c-10.621 0-19.231-10.854-19.231-24.242z" fill="#ff4d42"/><path d="m800 574.242c0-13.388 8.61-24.242 19.231-24.242h461.539c10.62 0 19.23 10.854 19.23 24.242v101.516c0 13.388-8.61 24.242-19.23 24.242h-461.539c-10.621 0-19.231-10.854-19.231-24.242z" fill="#ff4d42"/><path d="m1150 1024.24c0-13.39 8.61-24.24 19.23-24.24h461.54c10.62 0 19.23 10.85 19.23 24.24v101.52c0 13.39-8.61 24.24-19.23 24.24h-461.54c-10.62 0-19.23-10.85-19.23-24.24z" fill="#5816ff"/><path d="m450 1024.24c0-13.39 8.61-24.24 19.231-24.24h461.538c10.621 0 19.231 10.85 19.231 24.24v101.52c0 13.39-8.61 24.24-19.231 24.24h-461.538c-10.621 0-19.231-10.85-19.231-24.24z" fill="#c59640"/><path d="m1500 1474.24c0-13.39 8.61-24.24 19.23-24.24h461.54c10.62 0 19.23 10.85 19.23 24.24v101.52c0 13.39-8.61 24.24-19.23 24.24h-461.54c-10.62 0-19.23-10.85-19.23-24.24z" fill="#d600ab"/></g><path d="m657.421 296.465c-.385.384-.385.384-2.211 2.21-2.498 2.498-2.498 2.498-6.246 6.246-9.226 9.226-9.226 9.226-22.295 22.295-30.752 30.752-30.752 30.752-67.654 67.654s-36.902 36.902-67.654 67.654c-13.069 13.07-13.069 13.07-22.295 22.295-3.748 3.748-3.748 3.748-6.246 6.246-1.826 1.826-1.826 1.826-2.211 2.211 0 0 7.071 7.071 7.071 7.071.385-.385.385-.385 2.211-2.21 2.498-2.499 2.498-2.499 6.246-6.247 9.226-9.225 9.226-9.225 22.295-22.295 30.752-30.752 30.752-30.752 67.654-67.654l67.654-67.654c13.069-13.069 13.069-13.069 22.295-22.295 3.748-3.748 3.748-3.748 6.246-6.246 1.826-1.826 1.826-1.826 2.211-2.21 0 0-7.071-7.071-7.071-7.071zm-207.418 214.488s48.296-12.94 48.296-12.94-2.588-9.66-2.588-9.66-31.566 8.458-31.566 8.458 8.458-31.566 8.458-31.566-9.659-2.588-9.659-2.588-12.941 48.296-12.941 48.296z" fill="#505050"/><path d="m735.508 303.536c.385.384.385.384 2.211 2.21 2.498 2.498 2.498 2.498 6.246 6.246l22.295 22.295c30.752 30.752 30.752 30.752 67.654 67.654l67.654 67.654c13.07 13.07 13.07 13.07 22.295 22.295 3.748 3.748 3.748 3.748 6.246 6.247 1.826 1.825 1.826 1.825 2.211 2.21 0 0 7.071-7.071 7.071-7.071-.385-.385-.385-.385-2.21-2.211-2.499-2.498-2.499-2.498-6.247-6.246-9.225-9.226-9.225-9.226-22.295-22.295-30.752-30.752-30.752-30.752-67.654-67.654s-36.902-36.902-67.654-67.654c-13.069-13.069-13.069-13.069-22.295-22.295-3.748-3.748-3.748-3.748-6.246-6.246-1.826-1.826-1.826-1.826-2.21-2.211 0 0-7.072 7.072-7.072 7.072zm214.489 207.417s-12.941-48.296-12.941-48.296-9.659 2.588-9.659 2.588 8.458 31.566 8.458 31.566-31.566-8.458-31.566-8.458-2.588 9.659-2.588 9.659 48.296 12.941 48.296 12.941z" fill="#505050"/><path d="m1435.51 1203.54 2.21 2.21c2.5 2.49 2.5 2.49 6.25 6.24 9.22 9.23 9.22 9.23 22.29 22.3l67.65 67.65c36.91 36.9 36.91 36.9 67.66 67.66 13.07 13.06 13.07 13.06 22.29 22.29l6.25 6.25c1.83 1.82 1.83 1.82 2.21 2.21 0 0 7.07-7.07 7.07-7.07-.38-.39-.38-.39-2.21-2.21-2.5-2.5-2.5-2.5-6.25-6.25-9.22-9.23-9.22-9.23-22.29-22.3-30.75-30.75-30.75-30.75-67.65-67.65-36.91-36.9-36.91-36.9-67.66-67.65-13.07-13.07-13.07-13.07-22.29-22.3-3.75-3.75-3.75-3.75-6.25-6.25-1.83-1.82-1.83-1.82-2.21-2.21 0 0-7.07 7.08-7.07 7.08zm214.49 207.41s-12.94-48.29-12.94-48.29-9.66 2.59-9.66 2.59 8.46 31.56 8.46 31.56-31.57-8.46-31.57-8.46-2.59 9.66-2.59 9.66 48.3 12.94 48.3 12.94z" fill="#505050"/><path d="m1007.42 746.464c-.38.385-.38.385-2.21 2.211-2.5 2.498-2.5 2.498-6.246 6.246-9.226 9.226-9.226 9.226-22.295 22.295-30.752 30.752-30.752 30.752-67.654 67.654s-36.902 36.902-67.654 67.654c-13.069 13.07-13.069 13.07-22.295 22.295-3.748 3.748-3.748 3.748-6.246 6.246-1.826 1.826-1.826 1.826-2.211 2.211 0 0 7.071 7.071 7.071 7.071.385-.385.385-.385 2.211-2.21 2.498-2.499 2.498-2.499 6.246-6.247 9.226-9.225 9.226-9.225 22.295-22.295 30.752-30.752 30.752-30.752 67.654-67.654l67.654-67.654c13.069-13.069 13.069-13.069 22.29-22.295 3.75-3.748 3.75-3.748 6.25-6.246 1.83-1.826 1.83-1.826 2.21-2.21 0 0-7.07-7.072-7.07-7.072zm-207.417 214.489s48.296-12.941 48.296-12.941-2.588-9.659-2.588-9.659-31.566 8.458-31.566 8.458 8.458-31.566 8.458-31.566-9.659-2.588-9.659-2.588-12.941 48.296-12.941 48.296z" fill="#505050"/><path d="m1085.51 753.536c.38.384.38.384 2.21 2.21 2.5 2.498 2.5 2.498 6.25 6.246 9.22 9.226 9.22 9.226 22.29 22.295 30.75 30.752 30.75 30.752 67.65 67.654 36.91 36.902 36.91 36.902 67.66 67.654 13.07 13.07 13.07 13.07 22.29 22.295 3.75 3.748 3.75 3.748 6.25 6.247 1.83 1.825 1.83 1.825 2.21 2.21 0 0 7.07-7.071 7.07-7.071-.38-.385-.38-.385-2.21-2.211-2.5-2.498-2.5-2.498-6.25-6.246-9.22-9.225-9.22-9.225-22.29-22.295-30.75-30.752-30.75-30.752-67.65-67.654-36.91-36.902-36.91-36.902-67.66-67.654-13.07-13.069-13.07-13.069-22.29-22.295-3.75-3.748-3.75-3.748-6.25-6.246-1.83-1.826-1.83-1.826-2.21-2.211 0 0-7.07 7.072-7.07 7.072zm214.49 207.417s-12.94-48.296-12.94-48.296-9.66 2.588-9.66 2.588 8.46 31.566 8.46 31.566-31.57-8.458-31.57-8.458-2.59 9.66-2.59 9.66 48.3 12.94 48.3 12.94z" fill="#505050"/><text fill="#fff" font-family="Arial" font-size="49" transform="translate(550 150)"><tspan x="0" y="44">RequestEvent</tspan></text><text fill="#fff" font-family="Arial" font-size="49" transform="translate(200 600)"><tspan x="0" y="44">RouteEvent</tspan></text><text fill="#fff" font-family="Arial" font-size="49" transform="translate(920.227 600)"><tspan x="0" y="44">RouteEvent</tspan></text><text fill="#fff" font-family="Arial" font-size="49" transform="translate(1263.99 1050)"><tspan x="0" y="44">RenderEvent</tspan></text><text fill="#fff" font-family="Arial" font-size="49" transform="translate(592.946 1050)"><tspan x="0" y="44">LogEvent</tspan></text><text fill="#fff" font-family="Arial" font-size="49" transform="translate(1575.28 1500)"><tspan x="0" y="44">ResponseEvent</tspan></text></svg>