<svg height="100" viewBox="0 0 100 100" width="100" xmlns="http://www.w3.org/2000/svg"><path d="m22.7762 37.2746h13.2293s14.0828 39.2018 14.0828 39.2018 14.1302-39.2018 14.1302-39.2018h13.1819s-21.2427 54.9105-21.2427 54.9105h-12.1387s-21.2428-54.9105-21.2428-54.9105z" fill="#d600ab"/><path d="m91.2461 22.7778c-2.5921 3.3562-6.3538 5.0343-11.2852 5.0343h-14.8414c-3.9831 0-7.0336 1.1808-9.1515 3.5426-1.2961 1.4294-2.3234 3.4804-3.0821 6.1529h-5.7374c-1.0432-3.0143-2.197-5.143-3.4615-6.386-2.1811-2.2064-5.5161-3.3095-10.0049-3.3095h-12.7077c-1.6122 0-3.3034-.2642-5.0736-.7925-3.0663-.9322-5.5004-2.5171-7.30224-4.7545-1.64378-2.051-2.73437-4.4594-3.27176-7.2251-.34772-1.6781-.53739-4.0864-.569-7.22507h7.5393c.569 2.57927 1.3276 4.33507 2.276 5.26727 1.4541 1.4295 3.9988 2.1442 7.6341 2.1442h11.0007c3.5405 0 6.3539.4662 8.4402 1.3985 3.5089 1.5848 6.3539 4.6924 8.5351 9.3226 1.7386-4.1952 3.7617-7.0153 6.0693-8.4603s5.5004-2.1986 9.5782-2.2608h11.9965c3.5088 0 6.0377-.839 7.5867-2.5171.9167-.9322 1.7228-2.5637 2.4182-4.89438h7.5393s-.0948 3.30958-.0948 3.30958c-.1265 4.4438-1.47 8.3282-4.0305 11.6533z" fill="#d600aa"/><path d="m91.2461 22.7778c-2.5921 3.3562-6.3538 5.0343-11.2852 5.0343h-14.8414c-3.9831 0-7.0336 1.1808-9.1515 3.5426-1.2961 1.4294-2.3234 3.4804-3.0821 6.1529h-5.7374c-1.0432-3.0143-2.197-5.143-3.4615-6.386-2.1811-2.2064-5.5161-3.3095-10.0049-3.3095h-12.7077c-1.6122 0-3.3034-.2642-5.0736-.7925-3.0663-.9322-5.5004-2.5171-7.30224-4.7545-1.64378-2.051-2.73437-4.4594-3.27176-7.2251-.34772-1.6781-.53739-4.0864-.569-7.22507h7.5393c.569 2.57927 1.3276 4.33507 2.276 5.26727 1.4541 1.4295 3.9988 2.1442 7.6341 2.1442h11.0007c3.5405 0 6.3539.4662 8.4402 1.3985 3.5089 1.5848 6.3539 4.6924 8.5351 9.3226 1.7386-4.1952 3.7617-7.0153 6.0693-8.4603s5.5004-2.1986 9.5782-2.2608h11.9965c3.5088 0 6.0377-.839 7.5867-2.5171.9167-.9322 1.7228-2.5637 2.4182-4.89438h7.5393s-.0948 3.30958-.0948 3.30958c-.1265 4.4438-1.47 8.3282-4.0305 11.6533z" fill="#4657ff"/></svg>